<svg xmlns="http://www.w3.org/2000/svg" width="157" height="61" viewBox="0 0 157 61" fill="none"><g clip-path="url(#a)" filter="url(#b)"><path d="M157 12.851c-1.553 2.579-2.887 5.559-4 8.937a734.41 734.41 0 0 0-3.338 10.407 182.935 182.935 0 0 1-3.611 10.444c-1.294 3.404-2.912 6.461-4.85 9.169-1.941 2.708-4.31 4.885-7.105 6.536-2.794 1.65-6.236 2.475-10.324 2.475h-1.32v-6.73c2.381 0 4.373-.206 5.977-.62 1.605-.412 2.976-1.016 4.115-1.813a12.559 12.559 0 0 0 2.95-2.894c.828-1.132 1.656-2.447 2.484-3.94l-16.302-31.971h4.436a4.818 4.818 0 0 1 4.284 2.605l11.156 21.61c.621-1.96 1.201-3.92 1.748-5.88a108.68 108.68 0 0 1 1.825-5.92 118.095 118.095 0 0 1 2.252-6.074 55.712 55.712 0 0 1 1.823-4.049 4.19 4.19 0 0 1 3.717-2.295h4.086l-.003.003ZM62.916 45.688v-.33l10.71-17.132-9.336-15.051v-.33h2.574a6.138 6.138 0 0 1 5.258 2.963l5.02 8.312h.99l4.916-8.275c1.104-1.86 3.11-3 5.278-3h2.214v.33l-9.226 14.942 10.71 17.241v.33h-2.855a6.14 6.14 0 0 1-5.293-3.023L77.8 32.335h-.99l-6.075 10.33a6.138 6.138 0 0 1-5.293 3.023h-2.527ZM3.964 56.117a3.064 3.064 0 0 1 1.165-1.14 3.26 3.26 0 0 1 1.613-.41c.667 0 1.262.164 1.785.493.52.33.9.791 1.136 1.393h-1.24a1.663 1.663 0 0 0-.678-.742 2.001 2.001 0 0 0-1.003-.244c-.417 0-.788.095-1.11.278a1.924 1.924 0 0 0-.762.802c-.184.35-.276.757-.276 1.218 0 .461.092.868.276 1.218.184.35.44.616.762.808a2.17 2.17 0 0 0 1.11.284c.38 0 .713-.08 1.003-.244.29-.163.515-.41.679-.74h1.239a2.762 2.762 0 0 1-1.136 1.388c-.52.323-1.115.487-1.785.487-.592 0-1.13-.138-1.619-.41a3.056 3.056 0 0 1-1.161-1.14 3.21 3.21 0 0 1-.429-1.65 3.233 3.233 0 0 1 .431-1.651v.002Zm7.787 4.562a2.292 2.292 0 0 1-.894-.903 2.735 2.735 0 0 1-.328-1.35c0-.512.112-.95.337-1.343a2.3 2.3 0 0 1 .911-.903c.385-.209.817-.315 1.291-.315s.906.103 1.291.315c.385.21.69.51.911.903.222.392.337.84.337 1.344 0 .504-.115.951-.345 1.344-.23.392-.54.693-.935.908a2.68 2.68 0 0 1-1.308.32 2.5 2.5 0 0 1-1.27-.32h.002Zm2.022-.762c.232-.13.42-.315.563-.57.147-.255.216-.562.216-.92s-.07-.668-.207-.917a1.414 1.414 0 0 0-.552-.564 1.477 1.477 0 0 0-.74-.19 1.47 1.47 0 0 0-.735.19 1.364 1.364 0 0 0-.538.564c-.135.25-.198.556-.198.917 0 .533.138.948.41 1.24.274.29.619.436 1.033.436.267 0 .517-.063.748-.186Zm6.421-3.808c.308.163.552.404.728.719.175.32.261.702.261 1.155v2.934h-1.02v-2.78c0-.444-.113-.785-.337-1.023-.221-.237-.526-.355-.911-.355-.386 0-.693.118-.918.355-.227.238-.339.58-.339 1.023v2.78h-1.03v-4.971h1.03v.57a1.73 1.73 0 0 1 .644-.479c.262-.114.54-.172.834-.172.394 0 .745.08 1.058.244Zm4.387.676h-.92v4.132h-1.04v-4.132h-.59v-.84h.59v-.352c0-.573.152-.989.457-1.25.302-.26.782-.392 1.432-.392v.857c-.314 0-.532.06-.659.175-.126.117-.19.32-.19.607v.353h.92v.842Zm.964-1.688a.632.632 0 0 1-.19-.467c0-.186.064-.344.19-.47a.626.626 0 0 1 .469-.189.61.61 0 0 1 .46.19c.126.125.19.28.19.47a.624.624 0 0 1-.19.466.626.626 0 0 1-.46.19.646.646 0 0 1-.469-.19Zm.978.848v4.972h-1.03v-4.972h1.03Zm1.322 1.138a2.27 2.27 0 0 1 2.044-1.22c.325 0 .644.071.963.212.32.143.566.329.753.564v-2.398h1.041v6.676h-1.04v-.748c-.17.24-.4.439-.702.596A2.148 2.148 0 0 1 29.88 61a2.22 2.22 0 0 1-1.187-.33 2.306 2.306 0 0 1-.848-.92 2.841 2.841 0 0 1-.314-1.34c0-.502.104-.943.314-1.327Zm3.553.45a1.54 1.54 0 0 0-.555-.579 1.503 1.503 0 0 0-1.478-.006 1.474 1.474 0 0 0-.554.57c-.144.253-.21.545-.21.889s.072.645.21.903c.143.257.33.455.56.59a1.465 1.465 0 0 0 1.475.003c.23-.135.414-.327.555-.582.144-.255.21-.556.21-.9 0-.34-.075-.639-.213-.888Zm7.131 1.283h-3.801c.029.399.178.714.443.955.264.24.592.36.977.36.555 0 .943-.231 1.173-.693h1.11a2.26 2.26 0 0 1-.816 1.123c-.394.29-.886.436-1.467.436-.474 0-.903-.106-1.276-.321a2.29 2.29 0 0 1-.886-.903 2.764 2.764 0 0 1-.322-1.35c0-.512.104-.959.313-1.349.208-.39.498-.687.877-.9.377-.212.808-.315 1.3-.315s.888.1 1.256.307c.368.203.653.493.857.862.204.37.308.794.308 1.276-.009.186-.02.355-.043.507l-.003.005Zm-1.041-.83a1.18 1.18 0 0 0-.405-.912c-.265-.229-.596-.344-.987-.344-.356 0-.658.112-.911.339-.253.226-.403.53-.451.916h2.757-.003Zm5.652-1.877c.308.163.553.404.728.719.175.318.261.702.261 1.155v2.934h-1.02v-2.78c0-.444-.112-.785-.334-1.023-.224-.237-.529-.355-.911-.355-.383 0-.693.118-.917.355-.227.238-.34.58-.34 1.023v2.78h-1.029v-4.971h1.03v.57c.17-.204.382-.364.644-.479.261-.112.54-.172.833-.172.394 0 .745.08 1.055.244Zm2.272.971c.207-.39.498-.688.866-.9a2.49 2.49 0 0 1 1.265-.315c.603 0 1.1.143 1.495.43.394.284.66.693.799 1.22h-1.11a1.183 1.183 0 0 0-.434-.578c-.198-.14-.449-.206-.748-.206-.422 0-.756.149-1.006.447-.25.3-.374.713-.374 1.249 0 .536.124.951.374 1.255.25.3.584.45 1.006.45.599 0 .992-.261 1.185-.785h1.11a2.228 2.228 0 0 1-.814 1.203c-.397.298-.891.447-1.483.447-.475 0-.898-.106-1.265-.32a2.26 2.26 0 0 1-.866-.904c-.207-.39-.31-.836-.31-1.349s.103-.96.31-1.35v.006Zm9.981 1.736h-3.804c.029.399.178.714.443.955.265.24.592.36.978.36.554 0 .943-.231 1.173-.693h1.11a2.28 2.28 0 0 1-.817 1.123c-.394.29-.886.436-1.466.436-.475 0-.903-.106-1.277-.321a2.29 2.29 0 0 1-.886-.903 2.764 2.764 0 0 1-.322-1.35c0-.512.104-.959.31-1.349a2.2 2.2 0 0 1 .878-.9c.377-.212.808-.315 1.297-.315.488 0 .888.1 1.256.307.368.203.653.493.86.862.204.37.304.794.304 1.276 0 .186-.014.355-.037.507v.005Zm-1.04-.83c-.007-.379-.145-.682-.41-.912-.264-.229-.594-.344-.985-.344-.357 0-.659.112-.912.339-.253.226-.402.53-.451.916h2.757Zm6.521-1.201h-.92v4.132h-1.04v-4.132h-.59v-.84h.59v-.352c0-.573.152-.989.457-1.25.302-.26.782-.392 1.432-.392v.857c-.314 0-.532.06-.659.175-.126.117-.19.32-.19.607v.353h.92v.842Zm2.543-.708c.25-.143.547-.209.892-.209v1.063h-.262c-.402 0-.71.1-.917.307-.207.203-.314.561-.314 1.066v2.616h-1.029v-4.972h1.03v.722a1.64 1.64 0 0 1 .6-.59v-.003Zm2.723 4.602a2.293 2.293 0 0 1-.894-.903 2.736 2.736 0 0 1-.328-1.35c0-.512.112-.95.336-1.343.225-.393.526-.69.912-.903a2.663 2.663 0 0 1 1.29-.315c.475 0 .906.103 1.292.315.385.21.69.51.911.903.221.392.334.84.334 1.344 0 .504-.112.951-.345 1.344-.233.392-.54.693-.935.908a2.68 2.68 0 0 1-1.308.32 2.49 2.49 0 0 1-1.268-.32h.003Zm2.021-.762c.233-.13.42-.315.564-.57.146-.253.215-.562.215-.92s-.069-.668-.207-.917a1.433 1.433 0 0 0-1.294-.754c-.267 0-.511.063-.736.19a1.364 1.364 0 0 0-.537.564c-.132.25-.199.556-.199.917 0 .533.138.948.412 1.24.273.29.618.436 1.035.436.273 0 .52-.063.75-.186h-.003Zm9.936-3.808c.308.163.555.404.73.722.179.32.268.702.268 1.155v2.934h-1.02v-2.78c0-.444-.113-.785-.334-1.023-.222-.237-.53-.355-.912-.355s-.693.118-.917.355c-.227.238-.34.58-.34 1.023v2.78h-1.02v-2.78c0-.444-.112-.785-.333-1.023-.225-.237-.53-.355-.912-.355s-.693.118-.917.355c-.227.238-.34.58-.34 1.023v2.78h-1.028v-4.972h1.029v.57a1.75 1.75 0 0 1 .64-.478c.26-.112.536-.172.832-.172.397 0 .75.083 1.067.252.313.17.554.413.721.731.153-.3.385-.539.705-.716a2.088 2.088 0 0 1 1.029-.267 2.26 2.26 0 0 1 1.052.247v-.006Zm12.838-1.461-1.863 6.269h-1.165l-1.32-4.745-1.403 4.745-1.155.008-1.783-6.277h1.093l1.3 5.105 1.41-5.105h1.157l1.31 5.08 1.312-5.08h1.107Zm.903.449a.632.632 0 0 1-.19-.467c0-.186.064-.344.19-.47a.626.626 0 0 1 .469-.189c.187 0 .333.063.46.19.126.125.19.28.19.47a.624.624 0 0 1-.19.466.626.626 0 0 1-.46.19.641.641 0 0 1-.469-.19Zm.975.848v4.972h-1.03v-4.972h1.03Zm2.557.84v2.75c0 .187.044.322.13.402.086.08.239.12.448.12h.633v.857h-.814c-.463 0-.82-.11-1.066-.324-.248-.218-.371-.57-.371-1.054v-2.751h-.59v-.84h.59v-1.237h1.04v1.237h1.21v.84h-1.21Zm5.75-.676c.296.163.532.404.705.72.172.317.259.701.259 1.154v2.934h-1.021v-2.78c0-.444-.112-.785-.337-1.022-.224-.238-.526-.356-.911-.356s-.693.118-.917.356c-.227.237-.34.578-.34 1.023v2.779H97.53V54.24h1.03v2.283c.175-.209.394-.372.664-.487.27-.111.56-.172.882-.172.38 0 .719.08 1.015.244Zm2.33-1.012a.63.63 0 0 1-.19-.467c0-.186.063-.344.19-.47a.623.623 0 0 1 .468-.189c.187 0 .337.063.46.19a.63.63 0 0 1 .19.47.62.62 0 0 1-.19.466.626.626 0 0 1-.46.19.639.639 0 0 1-.468-.19Zm.974.848v4.972h-1.029v-4.972h1.029Zm4.92.164c.308.163.552.404.728.719.175.32.262.702.262 1.155v2.934h-1.021v-2.78c0-.444-.112-.785-.337-1.023-.221-.237-.526-.355-.911-.355s-.693.118-.917.355c-.227.238-.339.58-.339 1.023v2.78h-1.03v-4.971h1.03v.57c.169-.204.382-.364.647-.479.261-.112.54-.172.833-.172.391 0 .742.08 1.055.244Z" fill="#FFB4B4"/><path d="M64.619 29.27c0-5.534-1.242-9.8-3.692-12.683-2.415-2.845-5.974-4.286-10.575-4.286-4.6 0-8.533 1.536-11.144 4.57-2.512 2.917-3.84 7.183-3.84 12.341 0 5.158 1.33 9.487 3.849 12.418 2.628 3.055 6.409 4.605 11.245 4.605 9.815 0 12.791-6.502 13.691-10.676H57.8c-1.052 3.745-3.712 5.885-7.334 5.885-5.026 0-8.154-3.768-8.577-10.338l-.026-.375H64.62v-1.462Zm-22.717-2.783.04-.39c.624-5.91 3.592-9.169 8.356-9.169 4.764 0 7.464 3.264 7.748 9.186l.018.373H41.902Zm-8.648 19.178h-5.36A3.024 3.024 0 0 1 25.25 44.1c-.975-1.739-1.39-3.787-1.39-6.596V9.125l-.336-.138c-1.845-.722-3.844-1.118-5.626-1.118-4.054 0-6.113 1.697-6.3 5.187l-.031.561h6.615v5.997h-6.584v22.032A4.02 4.02 0 0 1 7.57 45.66c-.132.017-.27.029-.408.029H1.797c1.346-1.596 2.34-3.482 2.774-6.49V19.613H0v-5.997h4.551l.02-.51a14.03 14.03 0 0 1 .24-2.063c.71-3.607 2.851-5.88 5.502-7.137 1.88-.897 4.011-1.287 6.075-1.287 3.482 0 6.133.863 7.113 1.232l.06.026 6.683.011V35.47c0 5.33 1.187 8.026 3.013 10.192l-.003.003Z" fill="#FFB4B4"/><path d="M118.376 13.077c-4.408-.108-8.727.954-12.51 3.098-1.239-2.052-2.484-4.373-3.594-6.439a104.08 104.08 0 0 0-.532-.985 1.392 1.392 0 0 1 1.228-2.052l15.856-.014L118.729 0l-19.79.037A5.715 5.715 0 0 0 94 2.954a5.665 5.665 0 0 0 .035 5.714c.69 1.18 1.477 2.653 2.334 4.235 1.265 2.358 2.694 5.011 4.155 7.372a26.12 26.12 0 0 0-3.807 4.923c-3.77 6.323-4.468 13.407-1.774 18.057 1.875 3.232 5.161 5.006 9.264 5.006.069 0 .138 0 .204-.006 5.638-.075 8.171-2.857 9.307-5.183 3.093-6.316-.998-16.095-4.161-21.339 2.6-1.398 5.495-2.06 8.629-1.985l.684.02.184-6.685-.684-.014.006.008ZM107.907 39.97c-.213.366-.891 1.575-3.588 1.613-1.777.02-2.846-.533-3.565-1.662-1.096-1.722-.705-7.215 1.725-11.287a19.177 19.177 0 0 1 1.863-2.59c2.435 4.338 5.98 9.802 3.568 13.931l-.003-.005Z" fill="#B2A4FF"/></g><defs><clipPath id="a"><path fill="#fff" d="M0 0h157v61H0z"/></clipPath><filter id="b" x="-4" y="0" width="165" height="69" filterUnits="userSpaceOnUse" color-interpolation-filters="sRGB"><feFlood flood-opacity="0" result="BackgroundImageFix"/><feColorMatrix in="SourceAlpha" values="0 0 0 0 0 0 0 0 0 0 0 0 0 0 0 0 0 0 127 0" result="hardAlpha"/><feOffset dy="4"/><feGaussianBlur stdDeviation="2"/><feComposite in2="hardAlpha" operator="out"/><feColorMatrix values="0 0 0 0 0 0 0 0 0 0 0 0 0 0 0 0 0 0 0.25 0"/><feBlend in2="BackgroundImageFix" result="effect1_dropShadow_1_503"/><feBlend in="SourceGraphic" in2="effect1_dropShadow_1_503" result="shape"/></filter></defs></svg>